<svg xmlns="http://www.w3.org/2000/svg" width="33" height="33" viewBox="0 0 33 33"><defs><style>.cls-1{fill:#3f5699;fill-rule:evenodd}</style></defs><path id="_3_copy_5" data-name="3 copy 5" class="cls-1" d="M458.5 947a16.5 16.5 0 1 1 16.5-16.5 16.5 16.5 0 0 1-16.5 16.5zm0-31a14.5 14.5 0 1 0 14.5 14.5 14.5 14.5 0 0 0-14.5-14.5zm4.264 15.252h-2.493v7.168h-3.736v-7.168h-1.866v-2.763h1.866v-1.657c0-2.252 1.055-3.593 4.048-3.593h2.493V926h-1.557c-1.166 0-1.243.386-1.243 1.106v1.382h2.823z" transform="translate(-442 -914)"/></svg>