<svg xmlns="http://www.w3.org/2000/svg" width="33" height="33" viewBox="0 0 33 33"><defs><style>.cls-1{fill:#d0d0d0;fill-rule:evenodd}</style></defs><path id="_3_copy_3" data-name="3 copy 3" class="cls-1" d="M796.5 4067a16.5 16.5 0 1 1 16.5-16.5 16.5 16.5 0 0 1-16.5 16.5zm0-31a14.5 14.5 0 1 0 14.5 14.5 14.5 14.5 0 0 0-14.5-14.5zm4.264 15.25h-2.493v7.17h-3.735v-7.17h-1.867v-2.76h1.867v-1.66c0-2.25 1.054-3.59 4.047-3.59h2.494v2.76h-1.558c-1.166 0-1.243.39-1.243 1.11v1.38h2.823z" transform="translate(-780 -4034)"/></svg>