<svg xmlns="http://www.w3.org/2000/svg" width="33" height="33" viewBox="0 0 33 33"><defs><style>.cls-1{fill:#3aabef;fill-rule:evenodd}</style></defs><path id="_3_copy_5" data-name="3 copy 5" class="cls-1" d="M405.5 947a16.5 16.5 0 1 1 16.5-16.5 16.5 16.5 0 0 1-16.5 16.5zm0-31a14.5 14.5 0 1 0 14.5 14.5 14.5 14.5 0 0 0-14.5-14.5zm6.952 11.981c.007.13.009.26.009.392a8.625 8.625 0 0 1-8.739 8.637 8.767 8.767 0 0 1-4.709-1.365 6.573 6.573 0 0 0 .733.042 6.2 6.2 0 0 0 3.815-1.3 3.071 3.071 0 0 1-2.868-2.108 3.108 3.108 0 0 0 1.387-.051 3.046 3.046 0 0 1-2.464-2.976v-.037a3.106 3.106 0 0 0 1.392.38 3.016 3.016 0 0 1-.952-4.052 8.752 8.752 0 0 0 6.331 3.173 2.911 2.911 0 0 1-.08-.691 3.055 3.055 0 0 1 3.071-3.036 3.089 3.089 0 0 1 2.243.958 6.172 6.172 0 0 0 1.95-.737 3.042 3.042 0 0 1-1.349 1.68 6.2 6.2 0 0 0 1.757-.474 6.205 6.205 0 0 1-1.527 1.565zm1.532-1.572h-.008a.042.042 0 0 0 .008 0z" transform="translate(-389 -914)"/></svg>