<svg xmlns="http://www.w3.org/2000/svg" width="33" height="33" viewBox="0 0 33 33"><defs><style>.cls-1{fill:#d0d0d0;fill-rule:evenodd}</style></defs><path id="_3_copy_2" data-name="3 copy 2" class="cls-1" d="M743.5 4067a16.5 16.5 0 1 1 16.5-16.5 16.5 16.5 0 0 1-16.5 16.5zm0-31a14.5 14.5 0 1 0 14.5 14.5 14.5 14.5 0 0 0-14.5-14.5zm6.952 11.98c.007.13.009.26.009.39a8.623 8.623 0 0 1-8.739 8.64 8.775 8.775 0 0 1-4.709-1.36c.241.02.485.04.733.04a6.234 6.234 0 0 0 3.815-1.3 3.088 3.088 0 0 1-2.868-2.11 3.656 3.656 0 0 0 .579.05 3.075 3.075 0 0 0 .808-.1 3.052 3.052 0 0 1-2.464-2.98v-.04a3 3 0 0 0 1.392.38 3.013 3.013 0 0 1-.952-4.05 8.763 8.763 0 0 0 6.331 3.18 2.946 2.946 0 0 1-.08-.69 3.056 3.056 0 0 1 3.071-3.04 3.086 3.086 0 0 1 2.243.96 6.251 6.251 0 0 0 1.95-.74 3.022 3.022 0 0 1-1.349 1.68 6.084 6.084 0 0 0 1.756-.47 6.315 6.315 0 0 1-1.526 1.56zm1.532-1.57s-.006.01-.009.01.008-.01.009-.01z" transform="translate(-727 -4034)"/></svg>