<?xml version="1.0" encoding="utf-8"?>
<!-- Generator: Adobe Illustrator 14.0.0, SVG Export Plug-In . SVG Version: 6.00 Build 43363)  -->
<!DOCTYPE svg PUBLIC "-//W3C//DTD SVG 1.1//EN" "http://www.w3.org/Graphics/SVG/1.1/DTD/svg11.dtd">
<svg version="1.1" id="Layer_1" xmlns="http://www.w3.org/2000/svg" xmlns:xlink="http://www.w3.org/1999/xlink" x="0px" y="0px"
	 width="110px" height="115px" viewBox="0 0 110 115" enable-background="new 0 0 110 115" xml:space="preserve">
<line fill="none" stroke="#AEAEAE" stroke-width="0.3938" x1="23.971" y1="73.37" x2="86.582" y2="73.37"/>
<g>
	<path fill="#333333" d="M27.096,93.554c0-2.315,1.762-3.93,3.941-3.93c1.354,0,2.394,0.508,3.049,1.49l-0.621,0.452
		c-0.497-0.734-1.321-1.208-2.428-1.208c-1.796,0-3.094,1.366-3.094,3.195s1.298,3.195,3.094,3.195c1.117,0,1.976-0.485,2.529-1.287
		l0.632,0.44c-0.678,0.993-1.784,1.58-3.161,1.58C28.857,97.482,27.096,95.868,27.096,93.554z"/>
	<path fill="#333333" d="M35.737,89.715h0.813v6.955h3.624v0.723h-4.438V89.715z"/>
	<path fill="#333333" d="M44.242,89.636h0.136l3.252,7.757h-0.858l-0.519-1.287h-3.885l-0.508,1.287h-0.802L44.242,89.636z
		 M45.959,95.405l-1.355-3.41c-0.146-0.361-0.293-0.914-0.293-0.914s-0.158,0.553-0.305,0.914l-1.355,3.41H45.959z"/>
	<path fill="#333333" d="M48.378,95.925l0.678-0.361c0.361,0.644,0.893,1.196,1.977,1.196c0.892,0,1.592-0.496,1.592-1.31
		c0-0.779-0.485-1.174-1.445-1.604l-0.61-0.282c-1.095-0.496-1.693-1.027-1.693-2.1c0-1.106,0.869-1.841,2.021-1.841
		c1.027,0,1.671,0.475,2.077,1.151l-0.654,0.407c-0.294-0.475-0.7-0.836-1.423-0.836c-0.757,0-1.22,0.44-1.22,1.096
		c0,0.677,0.361,0.981,1.22,1.377l0.609,0.282c1.276,0.564,1.931,1.197,1.931,2.349c0,1.265-1.005,2.032-2.382,2.032
		C49.587,97.482,48.785,96.737,48.378,95.925z"/>
	<path fill="#333333" d="M54.431,95.925l0.678-0.361c0.361,0.644,0.893,1.196,1.977,1.196c0.892,0,1.592-0.496,1.592-1.31
		c0-0.779-0.485-1.174-1.445-1.604l-0.61-0.282c-1.095-0.496-1.693-1.027-1.693-2.1c0-1.106,0.869-1.841,2.021-1.841
		c1.027,0,1.671,0.475,2.077,1.151l-0.654,0.407c-0.294-0.475-0.7-0.836-1.423-0.836c-0.757,0-1.22,0.44-1.22,1.096
		c0,0.677,0.361,0.981,1.22,1.377l0.609,0.282c1.276,0.564,1.931,1.197,1.931,2.349c0,1.265-1.005,2.032-2.382,2.032
		C55.64,97.482,54.838,96.737,54.431,95.925z"/>
	<path fill="#333333" d="M61.186,89.715h0.824v7.678h-0.824V89.715z"/>
	<path fill="#333333" d="M63.704,93.554c0-2.315,1.762-3.93,3.941-3.93c1.354,0,2.394,0.508,3.049,1.49l-0.621,0.452
		c-0.497-0.734-1.321-1.208-2.428-1.208c-1.796,0-3.094,1.366-3.094,3.195s1.298,3.195,3.094,3.195c1.117,0,1.976-0.485,2.529-1.287
		l0.632,0.44c-0.678,0.993-1.784,1.58-3.161,1.58C65.466,97.482,63.704,95.868,63.704,93.554z"/>
	<path fill="#333333" d="M74.729,89.636h0.136l3.252,7.757h-0.858l-0.519-1.287h-3.885l-0.508,1.287h-0.802L74.729,89.636z
		 M76.446,95.405l-1.355-3.41c-0.146-0.361-0.293-0.914-0.293-0.914s-0.158,0.553-0.305,0.914l-1.355,3.41H76.446z"/>
	<path fill="#333333" d="M79.588,89.715h0.813v6.955h3.624v0.723h-4.438V89.715z"/>
</g>
<g id="_x32_NdBis_2_">
	<g>
		<g>
			
				<path fill-rule="evenodd" clip-rule="evenodd" fill="none" stroke="#AEAEAE" stroke-width="1.5" stroke-linecap="round" stroke-linejoin="round" d="
				M56.771,25.701c0.061,1.738-0.051,4.919-0.051,4.919c6.164-0.136,11.182,2.515,11.59,7.708c0.115,1.468,0.055,3.216-0.4,4.794
				c-0.775,2.7-3.902,6.012-6.193,7.218c-1.328,0.697-3.531,1.207-4.646,1.168c-0.414,4.781,0.004,8.292-2.542,9.995
				c-3.262,2.182-9.337-0.264-8.185-5.395c0.644-2.869,6.973-3.729,6.392,0.6c-0.051,0.365-0.437,2.047-1.998,1.598
				c-1.481-0.426-1.361-3.187-2.026-3.809c-2.808,0.024-2.771,2.961-1.766,4.999c0.954,1.934,4.889,3.805,7.479,2.074
				c2.406-1.611,2.277-5.836,2.482-9.979c-3.147,0.081-9.023-0.889-11.564-3.473c-1.663-1.693-3.076-4.205-3.396-6.793
				c-1.235-10.01,7.974-16.793,14.48-20.09c-0.182-4.488-0.823-12.039,1.494-15.269c0.893-1.245,3.154-2.587,4.994-1.199
				c1.787,1.349,1.957,4.347,1.998,6.393C65.062,18.317,60.682,22.676,56.771,25.701z M44.746,42.323
				c0.776,5.64,5.399,9.171,12.081,9.075c0.109-3.144-0.523-8.998-0.244-16.014c-5.072,0.869-7.433,6.109-4.444,9.535
				c0,0-0.715-0.155,0,0c-2.971-2.173-3.148-4.405-3.213-6.592c-0.126-4.252,4.279-7.107,7.796-7.708
				c-0.031-1.097,0.162-2.666,0.051-4.919C52.022,29.143,43.556,33.683,44.746,42.323z M65.314,42.922
				c0.152-4.496-3.025-8.614-8.57-7.552c-0.219,5.541,0.326,16.137,0.326,16.137C62.178,51.236,65.139,48.057,65.314,42.922z"/>
			<path fill-rule="evenodd" clip-rule="evenodd" fill="none" stroke="#AEAEAE" stroke-width="1.5" d="M56.428,21.233
				C56.012,15.459,56.623,8.2,60.719,7.962c2.348-0.137,4.691,1.711,4.135,4.99C64.162,17.023,55.213,22.045,56.428,21.233z"/>
		</g>
	</g>
</g>
</svg>
