<svg xmlns="http://www.w3.org/2000/svg" width="16" height="13" viewBox="0 0 16 13"><defs><style>.cls-1{fill:#000;fill-rule:evenodd}</style></defs><path class="cls-1" d="M14.08 13H1.91A2.1 2.1 0 0 1 0 10.759V2.241A2.1 2.1 0 0 1 1.91 0h12.17A2.1 2.1 0 0 1 16 2.242v8.517A2.1 2.1 0 0 1 14.08 13zM14 1H2a1.11 1.11 0 0 0-.26.035L8 7.294l6.26-6.26A1.206 1.206 0 0 0 14 1zm1 1a1.438 1.438 0 0 0-.03-.26L8.35 8.354 8 8l-.35.354-6.61-6.6A2.38 2.38 0 0 0 1 2v9a1.129 1.129 0 0 0 1 1h12a1.129 1.129 0 0 0 1-1V2z"/></svg>