<svg xmlns="http://www.w3.org/2000/svg" width="12" height="16" viewBox="0 0 12 16"><defs><style>.cls-1{fill:#63b1d1;fill-rule:evenodd}</style></defs><path class="cls-1" d="M11.648 8.264a4.074 4.074 0 0 0-3.02-1.543H4.633L3.667.571A.681.681 0 0 0 2.994 0H.7a.692.692 0 0 0-.7.717l.764 9.2v5.41a.693.693 0 0 0 1.385 0V10.6h7.367v4.727a.665.665 0 1 0 1.329 0v-4.8a1.44 1.44 0 0 0 1.01-.688 1.489 1.489 0 0 0-.207-1.575zm-1.239.97h-7.29l1.21-1.2h4.3a2.748 2.748 0 0 1 1.9.984s.171.216-.12.216zm-8-7.923l.913 5.817-1.283 1.255-.6-7.072h.972z"/></svg>